<svg xmlns="http://www.w3.org/2000/svg" version="1.1" xmlns:xlink="http://www.w3.org/1999/xlink" xmlns:svgjs="http://svgjs.com/svgjs" width="1980" height="1080" preserveAspectRatio="none" viewBox="0 0 1980 1080"><g mask="url(&quot;#SvgjsMask1157&quot;)" fill="none"><path d="M -1037.55510452365,333 C -905.56,384.2 -641.56,615 -377.5551045236501,589 C -113.56,563 18.44,131 282.4448954763499,203 C 546.44,275 678.44,937.8 942.44489547635,949 C 1206.44,960.2 1394.93,305.8 1602.44489547635,259 C 1809.96,212.2 1904.49,623.8 1980,715" stroke="rgba(200, 109, 215, 1)" stroke-width="2"></path><path d="M -80.13876113871856,176 C 51.86,283.4 315.86,728 579.8612388612814,713 C 843.86,698 975.86,104.2 1239.8612388612814,101 C 1503.86,97.8 1635.86,666.6 1899.8612388612814,697 C 2163.86,727.4 2543.83,192.8 2559.8612388612814,253 C 2575.89,313.2 2095.97,849 1980,998" stroke="rgba(200, 109, 215, 1)" stroke-width="2"></path></g><defs><mask id="SvgjsMask1157"><rect width="1980" height="1080" fill="#ffffff"></rect></mask></defs></svg>