<?xml version="1.0" encoding="utf-8"?>
<svg viewBox="38.236 23.951 160.079 66.835" xmlns="http://www.w3.org/2000/svg">
  <defs>
    <clipPath id="clip0_16_388">
      <rect width="84" height="68" fill="white"/>
    </clipPath>
  </defs>
  <g clip-path="url(#clip0_16_388)" transform="matrix(1, 0, 0, 1, 116.421478, 23.950996)">
    <path d="M64.9259 12.0224C64.1798 11.6756 63.7957 10.7865 64.0333 9.95509C64.0516 9.89364 64.0634 9.82987 64.0678 9.76563C64.1057 9.10649 63.4608 8.65124 62.9074 8.9459C62.7962 9.00501 62.6994 9.09113 62.6244 9.1968C62.5887 9.24893 62.559 9.30572 62.5355 9.36531C62.2106 10.1622 61.3778 10.5719 60.599 10.3186C60.5414 10.2986 60.4817 10.2861 60.4215 10.2814C59.8041 10.2414 59.3776 10.9294 59.6536 11.5205C59.709 11.6393 59.7897 11.7426 59.8887 11.8222C59.9379 11.8604 59.9907 11.8925 60.0465 11.9172C60.793 12.2639 61.1768 13.1535 60.9395 13.9844C60.9208 14.0459 60.909 14.1096 60.9047 14.1743C60.8672 14.833 61.5116 15.2887 62.0654 14.9936C62.1766 14.9345 62.2734 14.8484 62.348 14.7427C62.3837 14.6906 62.4138 14.6338 62.4369 14.5742C62.7618 13.7777 63.5951 13.3676 64.3734 13.6209C64.431 13.6409 64.4907 13.6534 64.5513 13.6581C65.1683 13.6986 65.5952 13.0101 65.3188 12.4194C65.2634 12.3007 65.1827 12.1974 65.0838 12.1173C65.0349 12.0791 64.9817 12.0475 64.9259 12.0224Z" fill="#CBCBCB"/>
    <path d="M1.59463 12.3859C0.714248 12.3873 0.00130815 13.1484 0 14.0882V17.6432C0.00130815 18.5826 0.714248 19.3441 1.59463 19.345H27.2474C28.1273 19.3441 28.8407 18.5826 28.8416 17.6432V14.0882C28.8407 13.1484 28.1273 12.3873 27.2474 12.3859H1.59463Z" fill="#E5E5E5"/>
    <path d="M16.347 10.0184C16.0161 9.81449 15.5935 9.93552 15.4026 10.2884L14.4489 12.0512L13.5149 10.0803C13.2746 9.57337 12.6105 9.53426 12.3193 10.01C12.1841 10.2306 12.1697 10.5113 12.2813 10.7469L13.0082 12.2807H12.7418V19.4507H16.2973V12.2807H15.9219L16.5999 11.0266C16.7909 10.6738 16.6776 10.2223 16.347 10.0184Z" fill="#6D6DD7"/>
    <path d="M55.9237 55.1803C66.2952 55.1803 74.703 46.2047 74.703 35.1328C74.703 24.0609 66.2952 15.0853 55.9237 15.0853C45.5522 15.0853 37.1444 24.0609 37.1444 35.1328C37.1444 46.2047 45.5522 55.1803 55.9237 55.1803Z" fill="#1D1128"/>
    <path d="M68.9426 45.5278L64.0745 48.7039L69.4049 58.0148L74.2731 54.8388L68.9426 45.5278Z" fill="#1D1128"/>
    <path d="M59.2066 51.8799L54.3385 55.056L59.6689 64.367L64.537 61.1909L59.2066 51.8799Z" fill="#1D1128"/>
    <path d="M71.2079 59.2181C73.4483 57.7564 74.8483 55.8443 74.3347 54.9473C73.8212 54.0503 71.5887 54.5081 69.3483 55.9698C67.1079 57.4315 65.708 59.3436 66.2215 60.2406C66.735 61.1375 68.9675 60.6798 71.2079 59.2181Z" fill="#1D1128"/>
    <path d="M61.3478 65.3533C63.5882 63.8916 64.9882 61.9795 64.4747 61.0826C63.9612 60.1856 61.7287 60.6434 59.4882 62.1051C57.2478 63.5668 55.8479 65.4788 56.3614 66.3758C56.8749 67.2728 59.1074 66.815 61.3478 65.3533Z" fill="#1D1128"/>
    <path d="M45.3634 31.7717C46.6412 30.4086 44.3802 25.7814 40.3132 21.4364C36.2463 17.0915 31.9135 14.6742 30.6357 16.0373C29.3578 17.4003 31.6189 22.0276 35.6858 26.3725C39.7528 30.7174 44.0856 33.1347 45.3634 31.7717Z" fill="#1D1128"/>
    <path d="M81.3132 52.1252C82.7969 51.0253 81.3395 46.0437 78.0578 40.9984C74.7762 35.9531 70.913 32.7547 69.4292 33.8546C67.9454 34.9545 69.4029 39.9361 72.6846 44.9814C75.9662 50.0267 79.8294 53.225 81.3132 52.1252Z" fill="#1D1128"/>
    <path d="M50.1731 36.3505C53.7178 36.3505 56.5913 33.2829 56.5913 29.4989C56.5913 25.7149 53.7178 22.6473 50.1731 22.6473C46.6284 22.6473 43.7549 25.7149 43.7549 29.4989C43.7549 33.2829 46.6284 36.3505 50.1731 36.3505Z" fill="white"/>
    <path d="M47.9928 29.4551C49.1743 29.4551 50.1321 28.4327 50.1321 27.1714C50.1321 25.9102 49.1743 24.8877 47.9928 24.8877C46.8114 24.8877 45.8536 25.9102 45.8536 27.1714C45.8536 28.4327 46.8114 29.4551 47.9928 29.4551Z" fill="#3F3D56"/>
    <path d="M41.9078 40.9282C40.6908 43.0569 42.3124 45.9364 45.53 47.3604C48.7472 48.7839 52.342 48.2127 53.559 46.084L53.5634 46.0766C54.7773 43.9464 52.4196 42.3526 49.2011 40.931C45.9822 39.5093 43.1217 38.7981 41.9078 40.9282Z" fill="white"/>
    <path d="M49.6223 9.96066C51.299 2.75154 58.7009 -1.49099 66.1551 0.484575C73.609 2.4606 78.2921 9.90666 76.6151 17.1158C74.9385 24.3249 69.3749 24.3482 61.9211 22.3722C54.4673 20.3961 47.9453 17.1698 49.6223 9.96066Z" fill="#E6E6E6"/>
  </g>
  <path d="M 59.636 56.113 C 59.636 57.74 59.263 59.233 58.516 60.593 C 57.77 61.926 56.623 63.006 55.076 63.833 C 53.53 64.66 51.61 65.073 49.316 65.073 L 45.076 65.073 L 45.076 75.153 L 38.236 75.153 L 38.236 47.073 L 49.316 47.073 C 51.556 47.073 53.45 47.46 54.996 48.233 C 56.543 49.006 57.703 50.073 58.476 51.433 C 59.25 52.793 59.636 54.353 59.636 56.113 Z M 48.796 59.633 C 50.103 59.633 51.076 59.326 51.716 58.713 C 52.356 58.1 52.676 57.233 52.676 56.113 C 52.676 54.993 52.356 54.126 51.716 53.513 C 51.076 52.9 50.103 52.593 48.796 52.593 L 45.076 52.593 L 45.076 59.633 L 48.796 59.633 Z M 70.037 47.073 L 70.037 75.153 L 63.197 75.153 L 63.197 47.073 L 70.037 47.073 Z M 73.834 61.073 C 73.834 58.3 74.434 55.833 75.634 53.673 C 76.834 51.486 78.501 49.793 80.634 48.593 C 82.794 47.366 85.234 46.753 87.954 46.753 C 91.287 46.753 94.141 47.633 96.514 49.393 C 98.887 51.153 100.474 53.553 101.274 56.593 L 93.754 56.593 C 93.194 55.42 92.394 54.526 91.354 53.913 C 90.341 53.3 89.181 52.993 87.874 52.993 C 85.767 52.993 84.061 53.726 82.754 55.193 C 81.447 56.66 80.794 58.62 80.794 61.073 C 80.794 63.526 81.447 65.486 82.754 66.953 C 84.061 68.42 85.767 69.153 87.874 69.153 C 89.181 69.153 90.341 68.846 91.354 68.233 C 92.394 67.62 93.194 66.726 93.754 65.553 L 101.274 65.553 C 100.474 68.593 98.887 70.993 96.514 72.753 C 94.141 74.486 91.287 75.353 87.954 75.353 C 85.234 75.353 82.794 74.753 80.634 73.553 C 78.501 72.326 76.834 70.633 75.634 68.473 C 74.434 66.313 73.834 63.846 73.834 61.073 Z M 112.303 47.073 L 112.303 75.153 L 105.463 75.153 L 105.463 47.073 L 112.303 47.073 Z M 134.26 60.753 C 135.886 61.1 137.193 61.913 138.179 63.193 C 139.166 64.446 139.659 65.886 139.659 67.513 C 139.659 69.86 138.833 71.726 137.18 73.113 C 135.553 74.473 133.273 75.153 130.34 75.153 L 117.26 75.153 L 117.26 47.073 L 129.9 47.073 C 132.753 47.073 134.98 47.726 136.58 49.033 C 138.206 50.34 139.019 52.113 139.019 54.353 C 139.019 56.006 138.579 57.38 137.7 58.473 C 136.846 59.566 135.7 60.326 134.26 60.753 Z M 124.1 58.433 L 128.58 58.433 C 129.7 58.433 130.553 58.193 131.14 57.713 C 131.753 57.206 132.06 56.473 132.06 55.513 C 132.06 54.553 131.753 53.82 131.14 53.313 C 130.553 52.806 129.7 52.553 128.58 52.553 L 124.1 52.553 L 124.1 58.433 Z M 129.14 69.633 C 130.286 69.633 131.166 69.38 131.78 68.873 C 132.42 68.34 132.74 67.58 132.74 66.593 C 132.74 65.606 132.406 64.833 131.74 64.273 C 131.1 63.713 130.206 63.433 129.06 63.433 L 124.1 63.433 L 124.1 69.633 L 129.14 69.633 Z" fill="#F0F0F0"/>
</svg>
